<?xml version="1.0" standalone="no"?>
<!DOCTYPE svg PUBLIC "-//W3C//DTD SVG 20010904//EN"
 "http://www.w3.org/TR/2001/REC-SVG-20010904/DTD/svg10.dtd">
<svg version="1.0" xmlns="http://www.w3.org/2000/svg"
 width="485.000000pt" height="207.000000pt" viewBox="0 0 485.000000 207.000000"
 preserveAspectRatio="xMidYMid meet">

<g transform="translate(0.000000,207.000000) scale(0.100000,-0.100000)"
fill="#000000" stroke="none">
<path d="M444 1760 c-64 -26 -86 -122 -39 -172 14 -15 42 -32 62 -37 22 -6
148 -11 296 -11 278 0 293 -2 355 -55 126 -106 103 -332 -41 -407 -33 -17 -67
-23 -152 -27 -120 -7 -146 -16 -175 -64 -29 -47 -25 -81 14 -125 33 -36 37
-37 114 -40 171 -8 297 35 401 136 107 105 158 248 140 393 -25 198 -160 354
-354 405 -57 16 -585 19 -621 4z"/>
<path d="M4345 1703 c-11 -3 -28 -12 -37 -21 -17 -14 -18 -49 -18 -456 0 -481
0 -478 57 -489 32 -6 71 7 89 31 11 13 13 111 14 455 0 424 -1 438 -20 457
-11 11 -24 20 -29 20 -5 0 -15 2 -23 4 -7 2 -22 1 -33 -1z"/>
<path d="M547 1429 c-82 -19 -147 -76 -166 -146 -6 -22 -11 -146 -11 -295 l0
-256 26 -31 c34 -41 82 -49 131 -24 56 29 62 57 62 282 l1 193 34 34 34 34
146 0 c159 0 189 7 212 51 34 67 5 140 -64 159 -45 12 -352 12 -405 -1z"/>
<path d="M1757 1409 c-93 -22 -179 -96 -213 -185 -27 -69 -27 -229 0 -298 69
-179 315 -248 516 -146 52 27 76 63 64 97 -15 42 -41 44 -124 11 -118 -47
-218 -40 -272 19 -23 25 -48 86 -48 117 l0 26 223 2 222 3 -1 80 c0 66 -5 89
-27 131 -61 119 -198 177 -340 143z m166 -126 c32 -16 66 -82 67 -125 l0 -28
-155 0 c-153 0 -155 0 -155 22 0 34 38 105 68 124 52 34 116 37 175 7z"/>
<path d="M2254 1406 c-17 -8 -34 -21 -38 -31 -3 -9 -6 -146 -6 -305 0 -330 0
-332 78 -334 74 -1 76 5 82 237 4 179 7 206 25 236 34 58 68 76 141 76 117 0
134 -43 134 -341 0 -150 2 -173 18 -186 25 -22 49 -28 83 -21 53 10 59 38 59
260 0 276 -22 353 -114 394 -105 46 -223 30 -300 -42 l-43 -39 -7 41 c-5 34
-12 42 -41 55 -40 16 -33 16 -71 0z"/>
<path d="M2954 1408 c-53 -13 -56 -32 -52 -279 3 -220 3 -225 30 -279 41 -83
108 -120 213 -120 63 0 143 36 177 80 l26 33 7 -43 c6 -35 12 -44 41 -56 19
-8 45 -12 59 -8 53 13 55 24 55 345 0 323 1 317 -59 332 -35 9 -89 -17 -95
-45 -3 -13 -7 -109 -8 -214 l-3 -191 -29 -37 c-32 -43 -78 -66 -131 -66 -42 0
-89 22 -101 47 -5 10 -11 118 -14 239 -4 196 -7 224 -23 242 -22 24 -52 31
-93 20z"/>
<path d="M3825 1406 c-130 -41 -208 -136 -223 -270 -27 -232 89 -382 308 -402
108 -10 259 40 286 94 15 30 4 73 -22 82 -12 5 -46 -3 -94 -22 -118 -47 -218
-40 -272 19 -23 25 -48 87 -48 118 l0 25 220 0 220 0 6 26 c20 81 -28 218 -97
278 -68 58 -193 81 -284 52z m178 -125 c31 -18 67 -84 67 -124 l0 -27 -155 0
c-154 0 -155 0 -155 23 1 36 36 104 64 123 54 35 124 37 179 5z"/>
<path d="M1630 498 c-54 -58 12 -180 74 -135 16 12 14 13 -16 9 -43 -5 -63 17
-63 68 0 51 20 73 61 68 18 -2 30 0 28 4 -10 16 -64 8 -84 -14z"/>
<path d="M1791 506 c-18 -21 -24 -77 -12 -109 6 -15 22 -32 36 -37 67 -25 119
60 80 130 -13 23 -13 21 -8 -32 7 -66 -5 -88 -47 -88 -36 0 -53 22 -53 70 0
49 15 68 56 73 32 4 32 4 -4 5 -21 1 -42 -4 -48 -12z"/>
<path d="M1972 455 c4 -73 20 -97 63 -97 40 0 49 16 52 95 l2 72 -9 -67 c-10
-79 -14 -88 -44 -88 -36 0 -46 19 -46 87 0 40 -4 63 -11 63 -8 0 -10 -21 -7
-65z"/>
<path d="M2160 441 c0 -52 4 -81 11 -81 7 0 10 23 7 65 -1 36 -1 65 2 65 3 0
23 -29 43 -65 21 -36 42 -65 47 -65 6 0 10 35 10 80 0 53 -4 80 -11 80 -8 0
-10 -20 -7 -65 3 -36 3 -65 -1 -65 -3 0 -22 28 -41 62 -50 88 -60 86 -60 -11z"/>
<path d="M2362 508 c-23 -23 -13 -47 27 -68 46 -23 53 -32 45 -55 -6 -14 -16
-16 -53 -12 -44 4 -45 4 -16 -8 69 -30 119 37 54 73 -54 30 -60 37 -53 56 5
13 15 17 40 14 18 -2 30 0 28 4 -8 12 -59 9 -72 -4z"/>
<path d="M2510 440 l0 -80 53 2 c50 1 50 2 10 5 -41 4 -43 5 -43 38 0 31 3 34
33 38 l32 4 -32 1 c-29 2 -33 5 -33 31 0 27 4 30 38 34 34 3 33 4 -10 5 l-48
2 0 -80z"/>
<path d="M2670 440 l0 -80 48 2 c43 1 44 2 10 5 l-38 4 0 75 c0 43 -4 74 -10
74 -6 0 -10 -33 -10 -80z"/>
<path d="M2823 440 c0 -47 2 -66 4 -42 2 23 2 61 0 85 -2 23 -4 4 -4 -43z"/>
<path d="M2912 438 l2 -83 5 69 c7 77 8 77 57 -11 16 -29 32 -53 37 -53 4 0 6
37 5 83 l-2 82 -5 -69 -6 -69 -39 66 c-21 37 -43 67 -47 67 -5 0 -8 -37 -7
-82z"/>
<path d="M3111 494 c-51 -64 5 -160 77 -133 17 7 22 16 22 44 0 32 -2 35 -27
34 -24 -2 -25 -2 -5 -6 17 -3 22 -11 22 -34 0 -26 -3 -29 -34 -29 -50 0 -74
44 -54 101 11 32 42 45 80 34 18 -5 20 -4 8 4 -27 19 -67 12 -89 -15z"/>
</g>
</svg>
